<svg id="Layer_1" data-name="Layer 1" xmlns="http://www.w3.org/2000/svg" viewBox="0 0 270.44 258.95"><defs><style>.cls-1{fill:#915eff;}.cls-2,.cls-3{font-size:194.13px;font-family:SuperBoys, Super Boys;}.cls-2{fill:#fff;}.cls-3{fill:none;stroke:#915eff;stroke-miterlimit:10;stroke-width:3px;}</style></defs><g id="g17"><path id="path3" class="cls-1" d="M49.47,30.81h1.2l-1-.55Zm3.26-1.53c0,.22,0,.22.22.22l1-.76C53.5,28.52,53.17,28.52,52.73,29.28ZM43,36.06l.76-.55A.79.79,0,0,0,44,35h-.58L43,36.06C42.72,35.81,42.72,36.06,43,36.06Zm5.55-7.18h-.22l-.54.43h.76Zm-5.33,6,1.52-1.2a1,1,0,0,0,.22-.76h-.76l-2.94,2.72-.54,1,1.7-1.58Z"/><path id="path5" class="cls-1" d="M24.23,55.06v-.55A4.66,4.66,0,0,1,26,51.8l2.28-1.52,1.2-1.52,1.73-1.7,1-1,1-.76a4.52,4.52,0,0,0,2-2.29l1-1.2a14.14,14.14,0,0,0,2.5-3.26l.54-.76.77-.55-.55-.76,1-1.19c2-1.53,3.48-3.49,5.55-5l.76-.76A3.28,3.28,0,0,1,48,28l2-1h1a3.92,3.92,0,0,0,1.74-1.53v-.54A9.26,9.26,0,0,1,56,21.45l2-1.2.54-.54,1-1,2.5-1.2h.55l-2.83,1-3.52,2.55c-1.53,1.2-3.49,1.53-4.47,3.49h.77c-1.74.54-3.49,1.19-4.25,3s-2,1.53-3,2.29a1,1,0,0,0-.76,1c-2-.22-2.72,1.19-3.7,2.28v2a9.63,9.63,0,0,0-4,3.48c-4,.22-4,5.22-7.51,6.2H29a.5.5,0,0,0,0,.55c-.77,0-1.2.54-1,1.19l-.55,1.2c-1.74,1-1.52,2.72-2.5,4.24-2,1.2-2.72,3.7-4.24,5.55l.76,1.2.54-.55A18.68,18.68,0,0,1,24.23,55.06ZM134.77.78l1.52.54h.54a5.52,5.52,0,0,0,3.48.55,10.22,10.22,0,0,1,4.79.21h3a3.44,3.44,0,0,1,3,.77v.21H150v.22h1.74a4.28,4.28,0,0,1,3.26,0c.55,0,.22.22.55.54l1.19.55h-.54a1.83,1.83,0,0,0-2-1,26.34,26.34,0,0,0-10.71-2.31h-2a25.33,25.33,0,0,0-9-1H133ZM153,8.61Zm18.82,1.2a2.35,2.35,0,0,0,2.5.54h1.52a7.53,7.53,0,0,0-4.46-1.74l-1.78-.55,1.2.76Zm-8.49-3.27a1.16,1.16,0,0,0,.54.77h.55l1.2-.77a11.72,11.72,0,0,0-4.29-1.48l1.74,1Zm18.5,6.75,2,1.2c-.63-.66-1.06-1.2-2-1.2Z"/><path id="path7" class="cls-1" d="M247.48,182.79l1.52-4,1.53-3.7a43.4,43.4,0,0,0,1.95-6.53,3.69,3.69,0,0,1,.76-1.74h.22v-2.76c1.2-.22,1-1.52,1.2-2.28l2-11.75a31.09,31.09,0,0,0,0-15.45,5,5,0,0,0-1.2-4V119.8c-.76-2.28.76-4.79-1-6.74l-2-8.06v-.54l-.54-1.52a1.56,1.56,0,0,1,0-1h.22c.76,0,.76-1.2.76-2.29a6,6,0,0,0-1-2.72l-.76-1a3.26,3.26,0,0,1-.55-1.74,15.37,15.37,0,0,0-.54-5V87.71c-.54-1.74-1-3.7-1.52-5.55L248,81a6.49,6.49,0,0,1-1-2.72,6,6,0,0,0-.76-2l-1.52-2.5a2.54,2.54,0,0,0-1.52-.54H243v-.77h-.55v-2h0V69.21a.87.87,0,0,0-.21-1.2,4.57,4.57,0,0,1-1-1.52L240.67,65a8.38,8.38,0,0,0-1.74-3,4.55,4.55,0,0,1-1.19-1.74L236,56.37a11.49,11.49,0,0,0-1.53-2.5l-1.52-2a6.7,6.7,0,0,1-1-2l-.54-.76a1.56,1.56,0,0,1-.22-1.19,1.12,1.12,0,0,0-.54-1l-1-.77v.33c.21.55,0,.76-.22.76h-.55l.77,2.51.76,1.19,1.74,2.29h-.22l-.54-.55-.55-.54a3.23,3.23,0,0,0-3-2.72V47.78c-.76-3-4-3.27-5.55-5.22a3.86,3.86,0,0,0-2.72-2.29l-2-2.28a28.44,28.44,0,0,0-7.72-7.51l-2-1.52-1-.77c-1.74-1.74-2.5-4.46-5.55-4.46l-2-1.19L197,20.8a5.45,5.45,0,0,0-4.46-3.27,12.82,12.82,0,0,0-5.77-3l.54.54,1.2,1,3.26,1.74a20.83,20.83,0,0,1,5.23,4,18.57,18.57,0,0,0,3.7,2.72l1.52,1.19c.22.22.54.55.22.76h-.22l-2.29-.76a14.12,14.12,0,0,1-5-2l-3-1.51-3.26-1.74h-.55c-.76-.22-1-1-1.95-1.2l-2-.54-6.2-1.2a7.07,7.07,0,0,1-2.29-1.74,4.37,4.37,0,0,1-2.28-.76l-2.47-1a49.92,49.92,0,0,1-7-2l-1.52-.54-2.5-.76h-1.2l-.54-.76V9.81h-4l-1.52-1.2-1,.55-1,.54h-.54L148,8.5c-1.52,1.53-2.72-.54-4-.22l-2.5-.76a3,3,0,0,1-3,0h-3A1.35,1.35,0,0,1,134.28,6V6l.76-.54h1.53a1.46,1.46,0,0,1,.22.76c0,.54.54.54,1.19.54h.55l-1-1.52A2.94,2.94,0,0,0,135,4.69l-2.5.77h-.22c.77.54.55.76.55,1.19h-4l-1-.54-1.95-1h-.22l-1.74-.54h-6l1-.51,2-.54h.76L126,2.74l2.72-.55,1.53-.54h-2.75a22,22,0,0,0-8.49,0h-3.26l-8.49-.22c-3.48.22-7,0-9.79,3.05-6.2-1-11.75,1.74-17.3,4.46L74.6,11.22a17.33,17.33,0,0,0-9.25,4.46h.77l1.19-.76,2-1.2,3.26-1.52,2.51-.54a15,15,0,0,1,5-2.29l2.29-.76h.54c.22.55,1.2,0,1.74,0h.55c.21,0,.21.22,0,.22l-1.53,1,2.46-.77,2-.55-3.26,1.74-3.27,1a2.87,2.87,0,0,0-1.52,1.2l-.76,1.2h.76l.9-.59a3.76,3.76,0,0,1,2.29-1.52L87,10.35h1.2a.25.25,0,0,1,.35.05.24.24,0,0,1,0,.35l-.08,0h0c-.55.54-1.52.76-2,1.19H87l-8,2.29-9.46,4a12.71,12.71,0,0,1-5.77,3.05,17.28,17.28,0,0,1-4.27,2.74l-2,.54a3.84,3.84,0,0,1-3.26,2.29l-.72,1.17a9.26,9.26,0,0,1-3,2.72h-.22v-.22l-.54.54-.55.55-2.5.54h-1.2l-1,1.2c-.22.21-.22.54,0,.54h.21c-1.52,1.52-2.5,3.48-4.46,4.24L37,41.9c-1.52,3-4.46,4-6.53,6.53S27,58.22,20.64,59.2l-.54-.76-.55,1.2a5.38,5.38,0,0,1-1,2,52,52,0,0,0-3,5.23,1.61,1.61,0,0,0-.24,1.19,3.09,3.09,0,0,1-.55,2l-1.19,2.72h.54c.76,0,.76.76,1,1.53l2-2.72a4.84,4.84,0,0,1,1.52-1.75,5.1,5.1,0,0,0,2.29-2.28l.76-.76,1-1,1.44-2.74h.54c.22.22.22.22.55,0l.54-1H27v2l1.2-1.2a1.22,1.22,0,0,0,0-1.2,1.66,1.66,0,0,1,.21-.76,4.27,4.27,0,0,0,.77-1.19,3.4,3.4,0,0,1,2-2.29l.77-.54.76-.76a6.23,6.23,0,0,0,2-2.51l.11-.21a1.48,1.48,0,0,1,.55-1h1.19l1.53-2,1.52-.76H40a129,129,0,0,0-13.7,18h-.11a127.36,127.36,0,0,0-13.28,28H11.72l-1.2-1c-.54-.54-.22-1.74-1-2.28h.22c.76-1.2-.22-3,.76-4.25s.22-3.48-2.28-3S4.54,86.18,5,88.69,2.48,93.15,2.26,96s-1.19,1.2-.76,2.29v9.8c.22,2-1.2,4.46,2,5.22l3.26,2.29c.22,1.19-1.19,4,2.29,3.26a121.56,121.56,0,0,0-.76,12.51c0,2.72.21,5.55.21,8.27v-1c-.21-1-.21-2-.54-3.26l-.76.76v-.54H6c0,1.19-.22,2-1,2.28a1.74,1.74,0,0,0-.22,1.2c0,.22.22.76.55.54s1,.55,1.74,1-.54.76-1,.54-.54.22-.54.77v.76l1.19,3.7c0,.76-.21,1.52-.21,2.28a4,4,0,0,0,.54,2H6.28v-.76l-1.74-.55v-1.57a2.22,2.22,0,0,0,0-1.2c-.33-1.5-.56-2.93-.76-4.5a46.94,46.94,0,0,1-.55-8.7,2.26,2.26,0,0,1,.22-1.2v.55a5.42,5.42,0,0,1,.22,1.19,3.43,3.43,0,0,0,.21,1c.22.55.55,1,1,1s.22-.21.22-.54a3.8,3.8,0,0,0-.22-1.2,12.18,12.18,0,0,1-.76-3.26,3.51,3.51,0,0,0-.76-1.74,4.07,4.07,0,0,1-.54-2.29v-2c0-.76.21-1.52.21-2.28a1,1,0,0,0-.21-1H2.58c-2,1-1.74.54-2.5,4v4.46a41.33,41.33,0,0,0,0,5.22A26.52,26.52,0,0,0,.62,141a2.22,2.22,0,0,1,0,1.2,17.57,17.57,0,0,0,.22,2.29,10.83,10.83,0,0,1,.22,3.26A9.4,9.4,0,0,0,1.6,152a1.43,1.43,0,0,1,0,1,6.12,6.12,0,0,0,.22,2,15.22,15.22,0,0,1,.54,2.29,34.83,34.83,0,0,0,1.2,5.54,15.37,15.37,0,0,1,.54,2.51,3.69,3.69,0,0,0,.76,1.74,6.12,6.12,0,0,1,1.2,3,24.19,24.19,0,0,0,.76,2.51l1,3.48a11.31,11.31,0,0,0,1.52,3.7,20.94,20.94,0,0,1,2,5.22l.55,1.2a4.17,4.17,0,0,1,1.19,2.5,5.7,5.7,0,0,0,1,2,2.42,2.42,0,0,1,.55,1.19c.21.76.54,1,1,.76h.21V195l1.2,2.5,1.2,2.5,2.62,3.11,1,1c.76.76,1.74,1.2,2.28,2.5l1,.76a2,2,0,0,1,.76,1.2l.55,1.74A6.52,6.52,0,0,0,28,212.5l1,.54h.76a.54.54,0,0,1,.33.65.11.11,0,0,1-.11.11h0V215a2.1,2.1,0,0,0,1,1.19h.54c1-.21,2,.55,3,1.74h.21c0-.21.22-.21,0-.54v-.54c0-.22.22-.55.55-.22a1.89,1.89,0,0,1,.76,1.52v.55a14.48,14.48,0,0,0,1,3c1.2.76,1.2.76,1.2.22s0-.54.54-.54h1l.54.76,2,1.19c1.74,2,4.46,1.75,6.53,3L53,230.66h.55a7.3,7.3,0,0,0,4,4,3.4,3.4,0,0,0,2.5,1.52c0,1.2,1.53,1.53,2.72,1.74a2.87,2.87,0,0,0,2,1h.55a4,4,0,0,0,3.69,1.2l2.29,2,6,2.28V245c1.2,2.72,4.25,1.74,6.2,2.5l2.72,1h1c3,.76,6,2.28,9.25,1.19a1.56,1.56,0,0,0,0,1c2.72,1.74,6,0,9,1a7,7,0,0,0,4.24.22h.22l2,.54h.76L115,253h.76a1.16,1.16,0,0,1,1.19,0,25,25,0,0,0,3.7,1h1.53a1.65,1.65,0,0,1,1.74,0h9.79a16.24,16.24,0,0,0,4-.22h2.51l1.19-.54h8.27l1.53-.55,1.19-.76h5.55v1.52h-3.26l-3.05.55c-1,.22-1.74,0-2.5.22a6.53,6.53,0,0,1-2.5.54l-3.27.76h-1a8.42,8.42,0,0,0-3.7.22h-4.46a2.83,2.83,0,0,1-2.28,0H120.62a3.15,3.15,0,0,0-2.72.76h-.76l-.76-.54v-.85h-3a12.09,12.09,0,0,0-3.26-.76h-6.2l-1.74-.54-1.2-.55-5.22-1h-1.2l-1.2-.55-5.22-1.74-3.48-1H79.06c-.21,0-.21.22-.21.55h.54c3.26,1.19,6.53,2.28,9.79,3.69H90l2.29.55,3.48,1H99l1.53.54,1.74.76,4.24.77,2.72.54,2.72.54h2l2,.55h7.72l2.5.54h5.77l2.5-.54H140c1,0,1.52-.22,1.74-.76h2.5a2.17,2.17,0,0,0,2-.77c-.22.22,0,.22.22.55h1v-.55c0-.21,0-.21.54-.54s1.52-.22,1.74.22h1l.76-.55c.55,0,.55,0,.55.22h1.74l1.19-.54,2-1c.22.76,1,1,3.27.54l3.26-1h3.05c2.28-.21,5,0,6.74-1.74h.55l1-.76,2.72-.76a16.33,16.33,0,0,0,5-2l1-.54h.22L186,246.9l1-.54,1.2-.54h1c1-.22,1-.22,1.19-1s0-.22-.54-.22h-.22l1-1.2h.54c.77-.22,1.2-.54,1.75-.22h.54a3.37,3.37,0,0,0,2.28-2.28c.77-1,2.72-.54,3.27-2l10.77-7.72c2.72-.22,3.48-2.72,5.55-4.25s5.76-2.72,7.5-5.54l2.29-1h.22a2.57,2.57,0,0,0,3-1.74v1c2-1,4.46.77,6.53-1.19s0-6.75,2.5-9.47l1.74-1.19a29.66,29.66,0,0,0,3.7-10.56l.55-.54a2.29,2.29,0,0,1,1-2.29,2.47,2.47,0,0,0,.54-3h-.54a1,1,0,0,0,0-.76c1.74,0,2-1.74,3-2.51v-4a2.21,2.21,0,0,0,.33-1.42Z"/><path id="path9" class="cls-1" d="M66,15.79l-.76.55-1,.76,1.19-.55Zm15.23-5h.22l.76-.55h-1Zm-6.53,2.5-.22.22h.22ZM22.92,58.11l-1,1h.55A.92.92,0,0,0,22.92,58.11Zm7.51-8.81a6.18,6.18,0,0,0,.76-1.52A3.21,3.21,0,0,0,30,49c-.22.22-.22.55,0,.55Zm-2.94,3.81v-.55c-.54,0-1.19.77-2,.77v.54C26.19,54.52,26.41,54.31,27.49,53.11ZM184.7,15.57h.22l-1.2-.76Zm-6.2-3.51c1.2-.21,2,1,3,1.2h.22l-.77-.54-2.5-1.2-2.72-1.2.76.55ZM161.2,5.32H161l-3-.55h1.2Zm5,1.74,3.26,1a8.11,8.11,0,0,0-3.25-1Zm-22.51,0a2.43,2.43,0,0,0,.54-1.2H143l-.76.76,1,.76Zm12.07.76Zm112,130.77H267v-1h.76c.22,0,.55-.76.22-1s-.22-1.74-.76-2a.82.82,0,0,1-.54-.77l.54-1v-.55h-.54l-.55-.76a2.87,2.87,0,0,1-1,1.74v.54c0,.22,0,.55-.21.55h-.22a1.85,1.85,0,0,1-.22.76,4.4,4.4,0,0,0-1,2.28,1,1,0,0,0,.22,1h.22a4,4,0,0,0-.22,2v1a3.8,3.8,0,0,1-.22,1.2h-.22l-1,1.74v1.52a3.44,3.44,0,0,1-.76,2.72H261l-.54-.54a2.1,2.1,0,0,1-.22-2,18.24,18.24,0,0,0,.22-4.24,1.25,1.25,0,0,0-.22-.55,1.67,1.67,0,0,0-.22.76v1.53c0,.54-.22,1.52-.76,1.74s-.22.54-.22.76l-.54,1.52.76,1.2a.67.67,0,0,1-1.2-.22v2.5h.76v1a13,13,0,0,0-.76,3.48v1a8.65,8.65,0,0,1-.54,3.27,3.54,3.54,0,0,0,0,1.52l-.76,1.74a8.46,8.46,0,0,1-.77,1.74l-.76,1.53-2.28,6.74c.76,2.29-1,3.7-2,5.22a6.66,6.66,0,0,1-2,5.77v1c0,.22.22.54.76.22l1-.77.55-1h.54c.22.21.54.21,1-.22h.54a1.16,1.16,0,0,1,.22,1.52,6.15,6.15,0,0,0-.22,2c0,.22,0,.54.22.54h.55c.21.22.54,0,.76-.76l.54-1.2h.76c1-.21,1-.21,1.53-1.52l1.19-2.28.76-1.53,1-2.5a4.29,4.29,0,0,1,.76-2.5,1.5,1.5,0,0,0,.22-1.52,2,2,0,0,1,.55-1.53l.76-1,1.19-2.5a8.93,8.93,0,0,1,.55-2.28,6.87,6.87,0,0,0,.76-3.27,10.18,10.18,0,0,1,.76-2.28v-1.2c-.22-.54-.22-.54,0-1.52s.22-.55.55-.55a.69.69,0,0,1,.21.77l.55-1.2a9.09,9.09,0,0,0,.54-2.29V154c0-.21,0-.76-.22-.76v1c-.54,0-.76.54-1.19.76a11.22,11.22,0,0,0,.21-2l1-.54a2,2,0,0,0,.55-1.52v-.77a12.09,12.09,0,0,0,.54-3.48v-.54l.76-2.5h.22a.67.67,0,0,0,.22-.76h-.22a1.9,1.9,0,0,1,.54-2,6.86,6.86,0,0,0-2.72-2.29Zm-245-69.08a.47.47,0,0,0,0-.55l-.55-.54-.54.54-.76,1.53c0,.76-.76,1.52-.76,2.28v.54h.21Zm240.76,62h.22a4.18,4.18,0,0,0,.54-3,1.09,1.09,0,0,1,.55-1.19H265v-.55l-.54-.54h-.22c-.21.22-.54.76-.76.76s-.22.22-.22.76v.76a6,6,0,0,0,.22,3ZM33,217.83c-.21,0,0,.54,0,.76l2,2h.22c-.54-.77-.76-1.53-.54-1.74a1.73,1.73,0,0,1-1.2-.55Zm232.83-88.46H266a3.54,3.54,0,0,0,0-1.52c-.76.22-.76.22-.76,1.52s.33.22.55,0Z"/><path id="path11" class="cls-1" d="M266.74,147.54a1.56,1.56,0,0,0,.21-1.19c0-.22-.21-.55-.21-.22h-.55v.54c.11.87.33,1.2.55.87Zm.24-20.48h-.21v1.52A2.48,2.48,0,0,0,267,127.06ZM42.72,224.14h-.54v.54l.54.54h.55v-.54ZM259.23,140.8c0-.22,0-.22-.22-.22Zm-234.57,68,1.2,1.19-1-1.52Z"/><path id="path15" class="cls-1" d="M24.23,67.8h0Zm208-16.43-.55-.76h-.21ZM14.44,73.56a.79.79,0,0,0,.22-.54v.54Zm246.31,70.5ZM41,223.81h-.21c.21.22.54,0,.21-.22Zm.44,1.74h.22l-.22-.22Z"/></g><text class="cls-2" transform="translate(41.14 197.24)">VL</text><text class="cls-3" transform="translate(32.89 197.24)">VL</text></svg>