<svg xmlns="http://www.w3.org/2000/svg" viewBox="0 0 270.45 258.89"><defs><style>.cls-1{fill:#915eff;}.cls-2{fill:#fff;}</style></defs><g id="Layer_2" data-name="Layer 2"><g id="svg23"><g id="g17"><path id="path3" class="cls-1" d="M49.49,30.75h1.2l-1-.55Zm3.26-1.53c0,.22,0,.22.22.22l1-.76C53.52,28.46,53.19,28.46,52.75,29.22ZM43,36l.76-.55a.82.82,0,0,0,.22-.54H43.4L43,36C42.74,35.75,42.74,36,43,36Zm5.55-7.18h-.22l-.54.43h.76Zm-5.33,6,1.52-1.2a1,1,0,0,0,.22-.76h-.76l-2.94,2.72-.54,1L42.42,35Z"/><path id="path5" class="cls-1" d="M24.25,55v-.55A4.64,4.64,0,0,1,26,51.74l2.28-1.52,1.2-1.52L31.21,47l1-1,1-.76a4.52,4.52,0,0,0,2-2.29l1-1.2a14.29,14.29,0,0,0,2.5-3.26l.54-.76.77-.55-.55-.76,1-1.19c2-1.53,3.48-3.49,5.55-5l.76-.76a3.24,3.24,0,0,1,1.2-1.52l2-1H51a3.93,3.93,0,0,0,1.74-1.53v-.54A9.17,9.17,0,0,1,56,21.39l2-1.2.54-.54,1-1,2.5-1.2h.55l-2.83,1L56.24,21c-1.53,1.2-3.49,1.53-4.47,3.49h.77c-1.74.54-3.49,1.19-4.25,3s-2,1.53-3,2.29a1,1,0,0,0-.76,1c-2-.22-2.72,1.19-3.7,2.28v2a9.58,9.58,0,0,0-4,3.48c-4,.22-4,5.22-7.51,6.2H29a.49.49,0,0,0,0,.55c-.77,0-1.2.54-1,1.19l-.55,1.2c-1.74,1-1.52,2.72-2.5,4.24-2,1.2-2.72,3.7-4.24,5.55l.76,1.2.54-.55A18,18,0,0,1,24.25,55ZM134.79.72l1.52.54h.54a5.54,5.54,0,0,0,3.48.55,10.23,10.23,0,0,1,4.79.21h3a3.45,3.45,0,0,1,3,.77V3H150v.22h1.74a4.28,4.28,0,0,1,3.26,0c.55,0,.22.22.55.54l1.19.55h-.54a1.82,1.82,0,0,0-2-1A26.27,26.27,0,0,0,143.49,1h-2a25.3,25.3,0,0,0-9-1h.55ZM153,8.55h0Zm18.82,1.2a2.36,2.36,0,0,0,2.5.54h1.52a7.59,7.59,0,0,0-4.46-1.74L169.6,8l1.2.76Zm-8.49-3.27a1.15,1.15,0,0,0,.54.77h.55l1.2-.77A11.77,11.77,0,0,0,161.33,5l1.74,1Zm18.5,6.75,2,1.2C183.2,13.77,182.77,13.23,181.79,13.23Z"/><path id="path7" class="cls-1" d="M247.5,182.73l1.52-4,1.53-3.7a43.42,43.42,0,0,0,1.95-6.53,3.63,3.63,0,0,1,.76-1.74h.22V164c1.2-.22,1-1.52,1.2-2.28l2-11.75a31.09,31.09,0,0,0,0-15.45,5,5,0,0,0-1.2-4V119.74c-.76-2.28.76-4.79-1-6.74l-2-8.06v-.54l-.54-1.52a1.5,1.5,0,0,1,0-1h.22c.76,0,.76-1.2.76-2.29a6,6,0,0,0-1-2.72l-.76-1a3.23,3.23,0,0,1-.55-1.74,15.52,15.52,0,0,0-.54-5V87.65c-.54-1.74-1-3.7-1.52-5.55L248,80.9a6.39,6.39,0,0,1-1-2.72,6.15,6.15,0,0,0-.76-2l-1.52-2.5a2.58,2.58,0,0,0-1.52-.54H243v-.77h-.55v-2h0V69.15a.88.88,0,0,0-.21-1.2,4.36,4.36,0,0,1-1-1.52l-.55-1.52a8.46,8.46,0,0,0-1.74-3,4.49,4.49,0,0,1-1.19-1.74L236,56.31a11.73,11.73,0,0,0-1.53-2.5l-1.52-2a6.44,6.44,0,0,1-1-2l-.54-.76a1.56,1.56,0,0,1-.22-1.19,1.14,1.14,0,0,0-.54-1l-1-.77v.33c.21.55,0,.76-.22.76h-.55l.77,2.51.76,1.19,1.74,2.29h-.22l-.54-.55-.55-.54a3.24,3.24,0,0,0-3-2.72V47.72c-.76-3-4-3.27-5.55-5.22a3.88,3.88,0,0,0-2.72-2.29l-2-2.28a28.3,28.3,0,0,0-7.72-7.51l-2-1.52-1-.77c-1.74-1.74-2.5-4.46-5.55-4.46l-2-1.19-2.28-1.74a5.44,5.44,0,0,0-4.46-3.27,12.88,12.88,0,0,0-5.77-3l.54.54,1.2,1,3.26,1.74a21,21,0,0,1,5.23,4,18.28,18.28,0,0,0,3.7,2.72l1.52,1.19c.22.22.54.55.22.76h-.22l-2.29-.76a14,14,0,0,1-5-2L192,22.15l-3.26-1.74h-.55c-.76-.22-1-1-1.95-1.2l-2-.54-6.2-1.2a7,7,0,0,1-2.29-1.74,4.34,4.34,0,0,1-2.28-.76L171,14a50.36,50.36,0,0,1-7-2l-1.52-.54-2.5-.76h-1.2l-.54-.76V9.75h-4l-1.52-1.2-1,.55-1,.54h-.54L148,8.44c-1.52,1.53-2.72-.54-4-.22l-2.5-.76a3,3,0,0,1-3,0h-3a1.35,1.35,0,0,1-1.2-1.52l.76-.54h1.53a1.52,1.52,0,0,1,.22.76c0,.54.54.54,1.19.54h.55l-1-1.52a2.94,2.94,0,0,0-2.51-.55l-2.5.77h-.22c.77.54.55.76.55,1.19h-4l-1-.54-1.95-1h-.22l-1.74-.54H118L119,4l2-.54h.76L126,2.68l2.72-.55,1.53-.54H127.5a22,22,0,0,0-8.49,0h-3.26l-8.49-.22c-3.48.22-7,0-9.79,3.05-6.2-1-11.75,1.74-17.3,4.46l-5.55,2.28a17.3,17.3,0,0,0-9.25,4.46h.77l1.19-.76,2-1.2,3.26-1.52,2.51-.54a14.9,14.9,0,0,1,5-2.29l2.29-.76h.54c.22.55,1.2,0,1.74,0h.55c.21,0,.21.22,0,.22l-1.53,1L86.15,9l2-.55-3.26,1.74-3.27,1a2.86,2.86,0,0,0-1.52,1.2l-.76,1.2h.76L81,13a3.76,3.76,0,0,1,2.29-1.52L87,10.29h1.2a.25.25,0,1,1,.22.44h0c-.55.54-1.52.76-2,1.19H87l-8,2.29-9.46,4a12.75,12.75,0,0,1-5.77,3.05A17.38,17.38,0,0,1,59.5,24l-2,.54a3.85,3.85,0,0,1-3.26,2.29L53.52,28a9.4,9.4,0,0,1-3.05,2.72h-.22v-.22l-.54.54-.55.55-2.5.54h-1.2l-1,1.2c-.22.21-.22.54,0,.54h.21c-1.52,1.52-2.5,3.48-4.46,4.24L37,41.84c-1.52,3-4.46,4-6.53,6.53S27,58.16,20.66,59.14l-.54-.76-.55,1.2a5.42,5.42,0,0,1-1,2,50.77,50.77,0,0,0-3,5.23A1.56,1.56,0,0,0,15.33,68a3.11,3.11,0,0,1-.55,2l-1.19,2.72h.54c.76,0,.76.76,1,1.53l2-2.72a4.71,4.71,0,0,1,1.52-1.75,5.15,5.15,0,0,0,2.29-2.28l.76-.76,1-1L24.14,63h.54c.22.22.22.22.55,0l.54-1H27v2l1.2-1.2a1.22,1.22,0,0,0,0-1.2,1.58,1.58,0,0,1,.21-.76,4.43,4.43,0,0,0,.77-1.19,3.39,3.39,0,0,1,2-2.29l.77-.54.76-.76a6.29,6.29,0,0,0,1.95-2.51l.11-.21a1.48,1.48,0,0,1,.55-1h1.19l1.53-2,1.52-.76H40a128.28,128.28,0,0,0-13.7,17.95h-.11a126.85,126.85,0,0,0-13.28,28H11.74l-1.2-1c-.54-.54-.22-1.74-1-2.28h.22c.76-1.2-.22-3,.76-4.25s.22-3.48-2.28-3S4.56,86.12,5,88.63s-2.5,4.46-2.72,7.28-1.19,1.2-.76,2.29V108c.22,2-1.2,4.46,2,5.22l3.26,2.29c.22,1.19-1.19,4,2.29,3.26a119.46,119.46,0,0,0-.76,12.51c0,2.72.21,5.55.21,8.27v-1c-.21-1-.21-2-.54-3.26l-.76.76v-.54H6c0,1.19-.22,1.95-1,2.28a1.72,1.72,0,0,0-.22,1.2c0,.22.22.76.55.54s1,.55,1.74,1-.54.76-1,.54-.54.22-.54.77v.76l1.19,3.7c0,.76-.21,1.52-.21,2.28a4,4,0,0,0,.54,2H6.3v-.76l-1.74-.55V147.7a2.21,2.21,0,0,0,0-1.2C4.23,145,4,143.57,3.8,142a46.78,46.78,0,0,1-.55-8.7,2.16,2.16,0,0,1,.22-1.2v.55a5.52,5.52,0,0,1,.22,1.19,3.37,3.37,0,0,0,.21,1c.22.55.55,1,1,1s.22-.21.22-.54a3.89,3.89,0,0,0-.22-1.2,12,12,0,0,1-.76-3.26,3.53,3.53,0,0,0-.76-1.74,4,4,0,0,1-.54-2.29v-2c0-.76.21-1.52.21-2.28a1.06,1.06,0,0,0-.21-1H2.6c-2,1-1.74.54-2.5,4v4.46a41.33,41.33,0,0,0,0,5.22,26.08,26.08,0,0,0,.54,5.76,2.21,2.21,0,0,1,0,1.2,16.27,16.27,0,0,0,.22,2.29,11.18,11.18,0,0,1,.22,3.26,9.37,9.37,0,0,0,.54,4.24,1.5,1.5,0,0,1,0,1,5.94,5.94,0,0,0,.22,2,16.89,16.89,0,0,1,.54,2.29,33.48,33.48,0,0,0,1.2,5.54,17.11,17.11,0,0,1,.54,2.51,3.67,3.67,0,0,0,.76,1.74,6.16,6.16,0,0,1,1.2,3,24,24,0,0,0,.76,2.51l1,3.48a11.26,11.26,0,0,0,1.52,3.7,21.27,21.27,0,0,1,2,5.22l.55,1.2a4.18,4.18,0,0,1,1.19,2.5,5.73,5.73,0,0,0,1,2,2.38,2.38,0,0,1,.55,1.19c.21.76.54,1,1,.76h.21v2.29l1.2,2.5,1.2,2.5L20.88,203l1,1c.76.76,1.74,1.2,2.28,2.5l1,.76a2.1,2.1,0,0,1,.76,1.2l.55,1.74A6.51,6.51,0,0,0,28,212.44l1,.54h.76a.54.54,0,0,1,.33.65.11.11,0,0,1-.11.11v1.2a2.11,2.11,0,0,0,1,1.19h.54c1-.21,2,.55,3,1.74h.21c0-.21.22-.21,0-.54v-.54c0-.22.22-.55.55-.22a1.92,1.92,0,0,1,.76,1.52v.55a14.21,14.21,0,0,0,1,3c1.2.76,1.2.76,1.2.22s0-.54.54-.54h1l.54.76,2,1.19c1.74,2,4.46,1.75,6.53,3.05L53,230.6h.55a7.3,7.3,0,0,0,4,4,3.41,3.41,0,0,0,2.5,1.52c0,1.2,1.53,1.53,2.72,1.74a2.84,2.84,0,0,0,2,1h.55a4,4,0,0,0,3.69,1.2l2.29,2,6,2.28v.55c1.2,2.72,4.25,1.74,6.2,2.5l2.72,1h1c3.05.76,6,2.28,9.25,1.19a1.5,1.5,0,0,0,0,1c2.72,1.74,6,0,9,1a7,7,0,0,0,4.24.22h.22l2,.54h.76l2.29.55h.76a1.15,1.15,0,0,1,1.19,0,24.4,24.4,0,0,0,3.7,1h1.53a1.65,1.65,0,0,1,1.74,0h9.79a16.46,16.46,0,0,0,4-.22h2.51l1.19-.54h8.27l1.53-.55,1.19-.76h5.55v1.52h-3.26l-3.05.55c-1,.22-1.74,0-2.5.22a6.55,6.55,0,0,1-2.5.54l-3.27.76h-1a8.35,8.35,0,0,0-3.7.22h-4.46a2.83,2.83,0,0,1-2.28,0H120.64a3.13,3.13,0,0,0-2.72.76h-.76l-.76-.54V255h-3.05a12,12,0,0,0-3.26-.76h-6.2l-1.74-.54-1.2-.55-5.22-1h-1.2l-1.2-.55-5.22-1.74-3.48-1H79.08c-.21,0-.21.22-.21.55h.54c3.26,1.19,6.53,2.28,9.79,3.69H90l2.29.55,3.48,1H99l1.53.54,1.74.76,4.24.77,2.72.54,2.72.54h2l2,.55h7.72l2.5.54h5.77l2.5-.54h5.55c1,0,1.52-.22,1.74-.76h2.5a2.17,2.17,0,0,0,2-.77c-.22.22,0,.22.22.55h1v-.55c0-.21,0-.21.54-.54s1.52-.22,1.74.22h1l.76-.55c.55,0,.55,0,.55.22h1.74l1.19-.54,2-1c.22.76,1,1,3.27.54l3.26-1h3.05c2.28-.21,5,0,6.74-1.74h.55l1-.76,2.72-.76a16.6,16.6,0,0,0,5-2l1-.54h.22l2.28-1.53,1-.54,1.2-.54h1c1-.22,1-.22,1.19-1s0-.22-.54-.22h-.22l1-1.2h.54c.77-.22,1.2-.54,1.75-.22h.54a3.39,3.39,0,0,0,2.28-2.28c.77-1,2.72-.54,3.27-2l10.77-7.72c2.72-.22,3.48-2.72,5.55-4.25s5.76-2.72,7.5-5.54l2.29-1h.22a2.57,2.57,0,0,0,3-1.74v1c2-1,4.46.77,6.53-1.19s0-6.75,2.5-9.47l1.74-1.19a29.76,29.76,0,0,0,3.7-10.56l.55-.54a2.28,2.28,0,0,1,1-2.29,2.49,2.49,0,0,0,.54-3h-.54a1,1,0,0,0,0-.76c1.74,0,2-1.74,3-2.51v-4a2.23,2.23,0,0,0,.33-1.42Z"/><path id="path9" class="cls-1" d="M66,15.73l-.76.55-1,.76,1.19-.55Zm15.23-5h.22l.76-.55h-1Zm-6.53,2.5-.22.22h.22ZM22.94,58.05l-1,1h.55A.93.93,0,0,0,22.94,58.05Zm7.51-8.81a6.55,6.55,0,0,0,.76-1.52A3.08,3.08,0,0,0,30,48.91c-.22.22-.22.55,0,.55Zm-2.94,3.81V52.5c-.54,0-1.19.77-2,.77v.54C26.21,54.46,26.43,54.25,27.51,53.05ZM184.72,15.51h.22l-1.2-.76ZM178.52,12c1.2-.21,2,1,3,1.2h.22l-.77-.54-2.5-1.2-2.72-1.2.76.55Zm-17.3-6.74H161l-3-.55h1.2Zm5,1.74,3.26,1A8.1,8.1,0,0,0,166.23,7ZM143.71,7a2.48,2.48,0,0,0,.54-1.2h-1.2l-.76.76,1,.76Zm12.07.76v0Zm112,130.77H267v-1h.76c.22,0,.55-.76.22-1s-.22-1.74-.76-1.95a.82.82,0,0,1-.54-.77l.54-1v-.55h-.54l-.55-.76a2.9,2.9,0,0,1-1,1.74v.54c0,.22,0,.55-.21.55h-.22a2,2,0,0,1-.22.76,4.35,4.35,0,0,0-1,2.28,1,1,0,0,0,.22,1h.22a4,4,0,0,0-.22,2v1a3.89,3.89,0,0,1-.22,1.2h-.22l-1,1.74v1.52a3.47,3.47,0,0,1-.76,2.72H261l-.54-.54a2.07,2.07,0,0,1-.22-2,18.86,18.86,0,0,0,.22-4.24,1.35,1.35,0,0,0-.22-.55,1.58,1.58,0,0,0-.22.76v1.53c0,.54-.22,1.52-.76,1.74s-.22.54-.22.76l-.54,1.52.76,1.2c-.55.54-1,.22-1.2-.22v2.5h.76v1a12.73,12.73,0,0,0-.76,3.48v1a8.71,8.71,0,0,1-.54,3.27,3.54,3.54,0,0,0,0,1.52l-.76,1.74a8.34,8.34,0,0,1-.77,1.74l-.76,1.53-2.28,6.74c.76,2.29-1,3.7-2,5.22a6.67,6.67,0,0,1-2,5.77v1c0,.22.22.54.76.22l1-.77.55-1h.54c.22.21.54.21,1-.22h.54a1.16,1.16,0,0,1,.22,1.52,6,6,0,0,0-.22,2c0,.22,0,.54.22.54h.55c.21.22.54,0,.76-.76l.54-1.2h.76c1-.21,1-.21,1.53-1.52l1.19-2.28.76-1.53,1-2.5a4.25,4.25,0,0,1,.76-2.5,1.51,1.51,0,0,0,.22-1.52,2,2,0,0,1,.55-1.53l.76-1,1.19-2.5a8.61,8.61,0,0,1,.55-2.28,6.92,6.92,0,0,0,.76-3.27,9.7,9.7,0,0,1,.76-2.28v-1.2c-.22-.54-.22-.54,0-1.52s.22-.55.55-.55a.69.69,0,0,1,.21.77l.55-1.2a9,9,0,0,0,.54-2.29v-.76c0-.21,0-.76-.22-.76v1c-.54,0-.76.54-1.19.76a11.75,11.75,0,0,0,.21-2l1-.54a2,2,0,0,0,.55-1.52v-.77a12.41,12.41,0,0,0,.54-3.48v-.54l.76-2.5h.22a.67.67,0,0,0,.22-.76h-.22a1.88,1.88,0,0,1,.54-2,6.85,6.85,0,0,0-2.72-2.29Zm-245-69.08a.49.49,0,0,0,0-.55l-.55-.54-.54.54-.76,1.53c0,.76-.76,1.52-.76,2.28v.54h.21Zm240.76,62h.22a4.21,4.21,0,0,0,.54-3.05,1.09,1.09,0,0,1,.55-1.19H265v-.55l-.54-.54h-.22c-.21.22-.54.76-.76.76s-.22.22-.22.76v.76a5.91,5.91,0,0,0,.22,3.05ZM33,217.77c-.21,0,0,.54,0,.76l2,2h.22c-.54-.77-.76-1.53-.54-1.74a1.72,1.72,0,0,1-1.2-.55Zm232.83-88.46H266a3.54,3.54,0,0,0,0-1.52c-.76.22-.76.22-.76,1.52s.33.22.55,0Z"/><path id="path11" class="cls-1" d="M266.76,147.48a1.6,1.6,0,0,0,.21-1.19c0-.22-.21-.55-.21-.22h-.55v.54c.11.87.33,1.2.55.87ZM267,127h-.21v1.52A2.53,2.53,0,0,0,267,127ZM42.74,224.08H42.2v.54l.54.54h.55v-.54Zm216.51-83.34c0-.22,0-.22-.22-.22Zm-234.57,68,1.2,1.19-1-1.52Z"/><path id="path15" class="cls-1" d="M24.25,67.74H24v0Zm208-16.43-.55-.76h-.21ZM14.46,73.5a.81.81,0,0,0,.22-.54v.54ZM260.77,144v0ZM41,223.75h-.21c.21.22.54,0,.21-.22Zm.44,1.74h.22l-.22-.22Z"/></g><path class="cls-2" d="M58.72,198.35H44.42c-.3-1.1.5-1,1-1.2a15.22,15.22,0,0,0,8.4-13.9c.2-21.8.1-43.7.2-65.5,0-1.7-.6-2-2.1-2-2.2.1-4.4-.1-6.6,0s-1.9-1.3-1.8-2.6-.7-3,1.7-3a43.39,43.39,0,0,1,5.1,0c2.7.3,3.9-.4,3.8-3.4-.3-7.1,1.8-13.7,5.1-19.9,6-11.5,15.6-18.7,27.5-23.2a57.35,57.35,0,0,1,16.4-3.1c10.7,0,21.1,1.3,31.1,5.3a45.65,45.65,0,0,1,8.5,4.4,2.15,2.15,0,0,0,2.9.1c16.3-11.3,34.1-11.6,52.5-7a51.05,51.05,0,0,1,18.7,8.4c6.6,5,11.1,11.5,10,20.1-2.1,16.1-17.8,20.8-29.8,15.5-10.1-4.5-14.2-18.2-7.7-27,1.2-1.7,2.5-3.3,3.7-5,3.4-4.7,1.4-10-4.3-11.1a12.16,12.16,0,0,0-13.5,6.5c-2.4,4.7-3.3,9.8-3.7,15-.6,7.5-.1,15-.1,22.4,0,1.7.7,2,2.1,2,4.6-.1,9.2.1,13.8-.1,2.4-.1,2.2,1.3,2.2,2.8s.2,2.9-2.2,2.8c-4.5-.2-9,0-13.5-.1-1.7,0-2.5.2-2.4,2.2.1,21.2-.1,42.5.1,63.7.1,6.8,2.4,12.9,9.7,16.5h-65c.1-.2.1-.6.3-.7,7.3-3.1,9.2-9.6,9.3-16.4.3-21,.1-42.1.2-63.1,0-2-.7-2.3-2.4-2.3q-10.8.15-21.6,0c-1.8,0-2.4.5-2.4,2.4.1,21.2,0,42.5.1,63.7,0,7,2.7,12.7,9,16.6C92,198.35,75.42,198.35,58.72,198.35Zm93.3-97.5c-.2.2-.6.3-.7.5-4.9,7.1-11.9,8.9-20,7.9-16.1-2.1-21.5-19.5-13.3-29.5,1.2-1.5,2.4-3,3.4-4.5,3.2-4.8.8-10-4.9-10.9-6.2-.9-11,1.7-13.5,7.4a36.76,36.76,0,0,0-2.9,10.3c-1.1,8.8-.4,17.5-.5,26.3,0,1.6.6,2,2.1,2,5.5-.1,11,0,16.5,0a10.07,10.07,0,0,1,4.5,1.2c7.3,3.7,14.8,4.1,21.9-.3A18.67,18.67,0,0,0,152,100.85Z"/></g></g></svg>