<svg xmlns="http://www.w3.org/2000/svg" viewBox="0 0 2037.86 178.83"><defs><style>.cls-1{fill:#fff;}</style></defs><g id="Layer_2" data-name="Layer 2"><g id="Layer_1-2" data-name="Layer 1"><path class="cls-1" d="M123.74,3.13l1,1A106,106,0,0,0,106.1,27.55q-7.21,12.51-17.29,39.1L63.43,133l10.34,9h-40l11.47-9.47L13.38,42.06,0,30.59H43.1L30.85,42.84l28.67,81.59,3.39-8.08L37.28,44.06l8.86-8.78,1.57,1.65L40,44.58,64,113.31,82.46,64.13q8.27-21.9,8.26-30.68a20.46,20.46,0,0,0-6.52-15.2l1.65-.35Q111.14,13,123.74,3.13Zm4.69,5.3.78,2Q112.62,23.38,95,69.52L70.47,133.38,84,149.2H39.19l-1.91-2.35H78.9L68,134,92.89,68.91l4.69-12.34a165.63,165.63,0,0,1,14.77-29.24Q120.87,14.09,128.43,8.43Z"/><path class="cls-1" d="M166.75,29.46q21.12,0,33.76,16T213.15,88.2q0,25.29-12.47,40.32t-33.49,15A45.33,45.33,0,0,1,137.64,133q-19-15.64-19-46.32,0-26.23,13-41.71T166.75,29.46Zm0,7.47q-29.37,0-29.37,51.62,0,47.7,28.94,47.7,13.47,0,20.5-12.64t7-37q0-27.54-6.78-38.4Q180,36.94,166.75,36.93Zm27.72-3q12.42,6,19.64,20.51t7.21,33.54q0,28-14.21,45.18t-37.32,17.21q-14.78,0-27.63-10v-.44q10.77,7.9,27,7.91,21.81,0,35.8-16.42t14-42q0-19-6.39-33.29T194.47,34.84ZM185.35,50l-1.48-.86q-8.34-4.6-15.29-4.61-22.86,0-22.86,44.93,0,32.83,14.17,43.53l-.79.87a33.71,33.71,0,0,1-12.38-16.21q-3.69-10-3.69-27.15,0-48.22,25.37-48.23Q180,42.23,185.35,50Z"/><path class="cls-1" d="M229.06,30.59h41.53l-12.25,11.9v92.89H259l3.13.26h.78V43.36l9.39-9.47,1.22,1.91-8.43,8.6v91.24c2.6.24,5.09.35,7.47.35q13.82,0,20.9-6.13t9.51-20.2q8.17,23.73,16.77,32.41H229.06l12-9.82V41.62Zm99.23,110.79-3.91,7.82H233.66l-2.17-2.35h91.93l2.52-5.47a99,99,0,0,1-15.29-26.16l-.35-1,2.78,1,.61,1.48a128.47,128.47,0,0,0,13.9,23.72Z"/><path class="cls-1" d="M375.21,29.46q21.12,0,33.76,16T421.61,88.2q0,25.29-12.46,40.32t-33.5,15A45.33,45.33,0,0,1,346.1,133q-19-15.64-19-46.32,0-26.23,13-41.71T375.21,29.46Zm0,7.47q-29.37,0-29.37,51.62,0,47.7,28.94,47.7,13.47,0,20.51-12.64t7-37q0-27.54-6.77-38.4Q388.43,36.94,375.21,36.93Zm27.72-3q12.44,6,19.64,20.51t7.21,33.54q0,28-14.2,45.18t-37.33,17.21q-14.78,0-27.63-10v-.44q10.77,7.9,27,7.91,21.81,0,35.8-16.42t14-42q0-19-6.39-33.29T402.93,34.84ZM393.81,50l-1.48-.86Q384,44.5,377,44.49q-22.86,0-22.86,44.93,0,32.83,14.17,43.53l-.78.87a33.73,33.73,0,0,1-12.39-16.21q-3.69-10-3.69-27.15,0-48.22,25.37-48.23Q388.42,42.23,393.81,50Z"/><path class="cls-1" d="M440.12,30.59h34.24q25.11,0,37.19,9.64,18,14.25,18,44.67,0,31.53-15.73,45.62a41.43,41.43,0,0,1-15.95,8.95q-8.82,2.59-23.41,2.6H437.52l11.9-9.12V40.58ZM442.9,149.2l-1.3-2.35h31.8q23.46,0,35.63-6.51,26.16-13.91,26.16-53.79,0-26.68-11.73-39.63L520,43.1c-.12-.12-.46-.52-1-1.22q18.42,11.57,18.42,44.23,0,34.33-18.25,50.58-14,12.51-45.71,12.51ZM466.45,37.89v97.49h4.78V43.62a55.11,55.11,0,0,1,8.26-.69,35.28,35.28,0,0,1,11.25,1.43,24.4,24.4,0,0,1,8.3,5.26,45.63,45.63,0,0,0-19.73-4.35q-2.25,0-5.91.35v89.76q9.74,0,14.78-1.61a23.45,23.45,0,0,0,9.55-6.21q12.6-12.77,12.6-42.92,0-29.46-13.64-40.24-8.25-6.51-26.15-6.51Z"/><path class="cls-1" d="M666.48,0l.53.7-.87,1A187.88,187.88,0,0,0,640.5,34.5l-5.56,9L602.62,95.24v35.28l12.6,11.55H572.9l12.51-11.55V95.24L564.56,63.17,560,56a120,120,0,0,0-10.12-14.08,94.46,94.46,0,0,0-11.69-10.51l-1-.78h43.88L570.38,41.8l28.93,43.62L602.1,81,576.29,41.8l9.12-8.69,1.83,1.39-7.91,7.3L603.4,78.9l19.46-30.67q8.43-13.38,8.43-20,0-5.56-7.38-12.69,25.27-6.08,41.53-15Zm3.92,5.21V8.78l-.87.87A114.38,114.38,0,0,0,657,23.55q-5.26,6.94-15.6,23.37L609.92,96.45v34.07l15.46,18.68H571l-1-2.35h50.84l-13.21-16.33V95.85l32.06-50.58,5-8Q658.14,15.81,670.4,5.21Z"/><path class="cls-1" d="M776.23,30.59l-11.9,12.08v89.24L775,142.07H735l12.08-10.16V73.43L719.58,149.2h-8.34l-.7-2.35h7.56l29-80.81V52.75L714.8,142h-6.08L684.91,71.86v46q0,9.21,1.21,13t5.74,8.43l7.82,9.91H654.23l-1.56-2.35h42.66l-3.21-4.78H653.36l1.83-.95q9.64-5.31,12.73-10.73T671,113.22V41.36L659.53,30.59h44.93L691.86,42l24.59,72.73,3.13-7.56L697.33,42.67l11.39-8.43,1.82,1.47-10.86,7.65,20.68,60.57,22.42-62-10.6-11.38ZM677.87,51.18v62.39q0,14.34,2.73,19.73t11.34,7.82l-.78-1.31q-8.52-5.9-8.51-17V65ZM781.1,37.36l-9.82,7V132L786.4,149.2H740.26L739,146.85H781.1L769,133.21V42.93l10.25-7Z"/><path class="cls-1" d="M910.83,0l.52.7-.86,1A187.88,187.88,0,0,0,884.85,34.5l-5.56,9L847,95.24v35.28l12.6,11.55H817.25l12.51-11.55V95.24L808.91,63.17,804.39,56a118.62,118.62,0,0,0-10.13-14.08,93.51,93.51,0,0,0-11.68-10.51l-1-.78H825.5L814.73,41.8l28.93,43.62L846.44,81,820.64,41.8l9.12-8.69,1.82,1.39-7.9,7.3,24.07,37.1,19.46-30.67q8.43-13.38,8.43-20,0-5.56-7.39-12.69,25.29-6.08,41.54-15Zm3.91,5.21V8.78l-.87.87a115.09,115.09,0,0,0-12.55,13.9q-5.27,6.94-15.6,23.37L854.26,96.45v34.07l15.47,18.68H815.34l-1.05-2.35h50.84l-13.21-16.33V95.85L884,45.27l5-8Q902.49,15.81,914.74,5.21Z"/><path class="cls-1" d="M907.62,41a87.13,87.13,0,0,1,44.32-11.9q18.42,0,30.36,8t12,20.34q0,10.08-7.82,17.85T965.06,86.55a153.67,153.67,0,0,0,16.29,32.15q10.29,15.64,20.64,24l-1.31.44a114.22,114.22,0,0,0-25.37,12.51l-1.3.87-.44-2.78Q968,120.09,958,96.71l-.35-.86a63.67,63.67,0,0,1-16.08,4.43l-.69.08v32.5l15.29,16.34H911.27l-1.39-2.35h41.36l-12.6-13.38v-35l1.82-.26a57.65,57.65,0,0,0,16.6-3.91c-.35-.69-.55-1.13-.61-1.3l-.87-2.52a10.84,10.84,0,0,0-.43-1Q949.76,91,934.82,92.8l-1,.18v38.75l9.91,10.34H905.36l11.3-10.34V102.54l-.7.08a91.78,91.78,0,0,0-9.12,2.52l-.7.26-.78-1.73a49.09,49.09,0,0,1,6-2l4.61-1.13.7-.18V95.85a47,47,0,0,0-12.78,2.25l-1,.35a41,41,0,0,1,1.73-5.65c.12-.23.53-1.53,1.22-3.91.06-.17.14-.43.26-.78,2.61.18,4.64.26,6.08.26a32.62,32.62,0,0,0,4.35-.26V45.36a53.28,53.28,0,0,0-8.26-4.09Zm26.24-2.25V85.59a25.29,25.29,0,0,0,4.78-.43V42.4a44.46,44.46,0,0,1,11.47-1.3q16.95,0,23,11.12a46.56,46.56,0,0,0-11.3-7.16,31,31,0,0,0-11.64-2,37.25,37.25,0,0,0-9.3,1v41l1-.18q17.13-3.12,25.42-9.86a21.49,21.49,0,0,0,8.3-17.51,20,20,0,0,0-7.47-15.94q-7.49-6.3-18.86-6.3Q940.12,35.37,933.86,38.76Zm42,52.13q5.48,17.91,19.38,35a91.5,91.5,0,0,0,22,19.2,137.52,137.52,0,0,0-37.36,16.17l-.78.52-1.74-1.39a123.86,123.86,0,0,1,35.36-16q-25-16.68-39.36-53.35l-.52-1.48q26.6-10.08,26.59-30.76,0-8.52-6.87-18.6a26.28,26.28,0,0,1,8.78,20.34Q1001.29,80.55,975.83,90.89Z"/><path class="cls-1" d="M1095.4,30.59h13.29V178.83H1095.4Z"/><path class="cls-1" d="M1285.87,33.28l-.95,1.65a247.07,247.07,0,0,0-13.56,27.29l-.78,2-1.13-.61q-2-13.22-9.3-20.94a23.36,23.36,0,0,0-17.64-7.74q-11,0-18.42,9.65-9.3,12-9.3,40.66,0,24.69,8.56,38.67t23.77,14q12.17,0,19.42-8.12t8.64-23.25q.35-3.65,3-3.65c2.26,0,3.39,1.89,3.39,5.65A44.75,44.75,0,0,1,1277.7,126q-8.07,19.11-33.36,19.11-22.6,0-35.89-15.85t-13.3-42.89q0-24.93,13.82-41.79t34.32-16.86q9.74,0,22.16,4.78A31.37,31.37,0,0,0,1276.23,35a14.16,14.16,0,0,0,8.25-2.52ZM1289,108q-1.39,21.55-12,32.8t-29.77,11.26a45.58,45.58,0,0,1-27-8.95v-.7q11.11,7.31,26.85,7.3,17.21,0,28.07-11a34.41,34.41,0,0,0,7.82-12.07q2.52-6.69,3.39-17.73l.17-2Zm-28.33-59.7q-7.9-6.33-14.94-6.34-22.51,0-22.51,42.93,0,19.55,5.22,32.54t14.68,16.81v.87q-10.26-2.09-16.38-15.77t-6.13-34.63q0-44.92,24.68-44.92,8.34,0,15.38,7.38Zm31.55-10.86-1,1.65a260.07,260.07,0,0,0-15.12,29.46l-2.35-1.13,1-2.17q4.35-9.12,7.65-15.12l6.95-12.34.87-1.56Z"/><path class="cls-1" d="M1346.87,29.46q21.12,0,33.76,16t12.64,42.75q0,25.29-12.46,40.32t-33.5,15a45.33,45.33,0,0,1-29.55-10.6q-19-15.64-19-46.32,0-26.23,13-41.71T1346.87,29.46Zm0,7.47q-29.37,0-29.37,51.62,0,47.7,28.94,47.7,13.47,0,20.51-12.64t7-37q0-27.54-6.77-38.4Q1360.09,36.94,1346.87,36.93Zm27.72-3q12.44,6,19.64,20.51t7.21,33.54q0,28-14.2,45.18t-37.33,17.21q-14.78,0-27.63-10v-.44q10.77,7.9,27,7.91,21.81,0,35.8-16.42t14-42q0-19-6.39-33.29t-18.12-21.29ZM1365.47,50,1364,49.1q-8.34-4.6-15.29-4.61-22.86,0-22.86,44.93,0,32.83,14.17,43.53l-.78.87a33.73,33.73,0,0,1-12.39-16.21q-3.69-10-3.69-27.15,0-48.22,25.37-48.23Q1360.09,42.23,1365.47,50Z"/><path class="cls-1" d="M1411.78,30.59H1446q25.11,0,37.19,9.64,18,14.25,18,44.67,0,31.53-15.73,45.62a41.43,41.43,0,0,1-16,8.95q-8.8,2.59-23.41,2.6h-36.93l11.9-9.12V40.58Zm2.78,118.61-1.3-2.35h31.8q23.48,0,35.63-6.51,26.16-13.91,26.16-53.79,0-26.68-11.73-39.63l-3.48-3.82c-.12-.12-.46-.52-1-1.22Q1509,53.45,1509,86.11q0,34.33-18.25,50.58-14,12.51-45.71,12.51Zm23.55-111.31v97.49h4.78V43.62a55.11,55.11,0,0,1,8.26-.69,35.28,35.28,0,0,1,11.25,1.43,24.4,24.4,0,0,1,8.3,5.26A45.63,45.63,0,0,0,1451,45.27q-2.25,0-5.91.35v89.76q9.74,0,14.78-1.61a23.61,23.61,0,0,0,9.56-6.21Q1482,114.79,1482,84.64q0-29.46-13.64-40.24-8.25-6.51-26.15-6.51Z"/><path class="cls-1" d="M1610.86,30.59l-1.39,1.65a86.74,86.74,0,0,0-14.08,24.94c-.58-1.33-1-2.32-1.3-3q-4.78-10.42-10.25-13.47t-19.64-3q-6.53,0-15.64.44v40h5.56V42.75q6.6-.6,12.6-.61,11,0,16.25,2.35t9.29,9.12c-.81-.57-1.39-1-1.73-1.3q-7-5.56-10.17-6.6T1568,44.66c-1.85,0-5.16.12-9.91.35l-1.82.09v33h16l11.21-15.38v37.45l-11.21-14.51h-23.72v48.75h5.56V89.76H1573l2.26,2.26h-18.94v42.41q17.73,0,25.2-2.52a21.06,21.06,0,0,0,11.73-9.91l4.61-7.91c.17-.34.52-1,1-1.91a56.52,56.52,0,0,0,5.6,15.3q3.35,5.73,11.08,13.38h-97.41l13.21-10.08V92a32.05,32.05,0,0,0-13.21,4.52l-1.21-1.82q5.29-3.82,14.42-5V85.68a20,20,0,0,0-2.08-.18A23.77,23.77,0,0,0,1513.1,92q4-13.9,18.25-13.9V41l-13.21-10.42Zm14.6,110.79-4.52,7.82h-94.89l-1.39-2.35h95.15l3-5.47q-12.51-11.56-17.64-24.68l2.79,1q4.77,11.13,16.16,22.25Zm-36-75.77V104l-2.17-1.13V64.48ZM1615,36.67l-.61.78q-10.61,14.25-14.16,23.9l-1.48-1.83a103.2,103.2,0,0,1,15-24.68Z"/><path class="cls-1" d="M1626.59,165.19h83.16v10.16h-83.16Z"/><path class="cls-1" d="M1721.13,30.59h39q24.84,0,35.36,6.86,13.38,8.61,13.38,23.9a26.3,26.3,0,0,1-5.12,16.16,28.45,28.45,0,0,1-14.34,9.91q-9.21,3-29.28,3h-10.69v42.05l10.6,9.56h-40.41l12.08-10.16V97.06c-.69-.06-1.19-.09-1.48-.09a27.85,27.85,0,0,0-12,2.7l-.78-1.57q5.82-3.3,10.43-3.3H1731l.69-.08V90.46a24,24,0,0,0-2.69-.26q-9.3,0-14.86,4.52l-.87-1.31q5.3-9.73,17-9.73h1.39V41.1Zm83.33,9.29q5.3,2.61,8.52,9.17a33.49,33.49,0,0,1,3.21,14.9q0,18.87-14.6,27.12-11,6.25-37.71,6.25c-3,0-5.44,0-7.47-.17V133l13.64,16.16h-43.53l-2.35-2.35h40.93L1754,134V94.8q7.56.44,16.07.44,22.42,0,33.28-7.91t10.86-24.24a30.46,30.46,0,0,0-2.08-11.78A44.91,44.91,0,0,0,1804.46,39.88Zm-55-.34V83.07h1.13l2.26.09c.23,0,.6,0,1.13-.09V44.32h9.55q11.13,0,15.69,2c3,1.31,5.63,4,7.78,8.13a17.19,17.19,0,0,0-8-6.22q-4.83-1.77-13.6-1.78h-8.95V83.07q17.21,0,25.24-5t8-15.81q0-12.07-7.17-17.56t-23.07-5.47Q1755.37,39.19,1749.46,39.54Z"/><path class="cls-1" d="M1825.58,41a87.13,87.13,0,0,1,44.31-11.9q18.42,0,30.37,8t12,20.34q0,10.08-7.82,17.85T1883,86.55a154.2,154.2,0,0,0,16.3,32.15q10.29,15.64,20.63,24l-1.3.44a114.22,114.22,0,0,0-25.37,12.51l-1.31.87-.43-2.78q-5.57-33.63-15.55-57l-.35-.86a63.67,63.67,0,0,1-16.08,4.43l-.69.08v32.5l15.29,16.34h-44.92l-1.39-2.35h41.36l-12.6-13.38v-35l1.82-.26a57.65,57.65,0,0,0,16.6-3.91c-.35-.69-.55-1.13-.61-1.3l-.87-2.52c-.06-.18-.2-.52-.43-1q-5.38,1.56-20.34,3.38l-1,.18v38.75l9.91,10.34h-38.41l11.29-10.34V102.54l-.69.08a92.78,92.78,0,0,0-9.13,2.52l-.69.26-.78-1.73a48.53,48.53,0,0,1,6-2l4.61-1.13.69-.18V95.85a46.91,46.91,0,0,0-12.77,2.25l-1,.35a43.21,43.21,0,0,1,1.74-5.65c.12-.23.52-1.53,1.22-3.91.06-.17.14-.43.26-.78,2.61.18,4.63.26,6.08.26a32.72,32.72,0,0,0,4.35-.26V45.36a53.28,53.28,0,0,0-8.26-4.09Zm26.24-2.25V85.59a25.29,25.29,0,0,0,4.78-.43V42.4a44.41,44.41,0,0,1,11.47-1.3q16.93,0,23,11.12a46.56,46.56,0,0,0-11.3-7.16,31.09,31.09,0,0,0-11.64-2,37.25,37.25,0,0,0-9.3,1v41l1-.18q17.13-3.12,25.42-9.86a21.49,21.49,0,0,0,8.3-17.51,20,20,0,0,0-7.47-15.94q-7.49-6.3-18.86-6.3Q1858.08,35.37,1851.82,38.76Zm42,52.13q5.48,17.91,19.38,35a91.5,91.5,0,0,0,22,19.2,137.52,137.52,0,0,0-37.36,16.17l-.79.52-1.73-1.39a123.86,123.86,0,0,1,35.36-16q-25-16.68-39.36-53.35l-.52-1.48q26.6-10.08,26.59-30.76,0-8.52-6.87-18.6a26.31,26.31,0,0,1,8.78,20.34Q1919.25,80.55,1893.79,90.89Z"/><path class="cls-1" d="M1983.29,29.46q21.12,0,33.76,16t12.64,42.75q0,25.29-12.47,40.32t-33.49,15a45.33,45.33,0,0,1-29.55-10.6q-19-15.64-19-46.32,0-26.23,13-41.71T1983.29,29.46Zm0,7.47q-29.37,0-29.37,51.62,0,47.7,28.94,47.7,13.47,0,20.5-12.64t7-37q0-27.54-6.77-38.4Q1996.49,36.94,1983.29,36.93Zm27.72-3q12.42,6,19.64,20.51t7.21,33.54q0,28-14.21,45.18t-37.32,17.21q-14.77,0-27.63-10v-.44q10.77,7.9,27,7.91,21.81,0,35.8-16.42t14-42q0-19-6.39-33.29T2011,34.84ZM2001.89,50l-1.48-.86q-8.34-4.6-15.29-4.61-22.86,0-22.86,44.93,0,32.83,14.17,43.53l-.78.87a33.67,33.67,0,0,1-12.39-16.21q-3.69-10-3.69-27.15,0-48.22,25.37-48.23Q1996.51,42.23,2001.89,50Z"/></g></g></svg>